<svg width="128" height="128" viewBox="0 0 128 128" fill="none" xmlns="http://www.w3.org/2000/svg">
<path d="M104.667 59.2222C104.206 59.2222 103.774 59.2079 103.327 59.2079H94.2678V23.3925C94.2966 21.2579 91.5744 21 89.9325 21H89.0539C87.412 21 84.7042 21.2579 84.733 23.3925C84.733 23.8509 84.733 24.2807 84.733 24.7391V59.2079H77.3155V23.3925C77.3443 21.2579 74.6222 21 72.9802 21H72.1017C70.4597 21 67.752 21.2579 67.7808 23.3925C67.7808 23.8509 67.7664 24.2807 67.7664 24.7391V59.2079H60.3489V23.3925C60.3777 21.2579 57.6555 21 56.0136 21H55.135C53.493 21 50.7853 21.2579 50.7997 23.3925C50.7997 23.8509 50.7997 24.2807 50.7997 24.7391V59.2079H43.3822V23.3925C43.411 21.2579 40.6888 21 39.0469 21H38.1683C36.5264 21 33.8186 21.2579 33.8474 23.3925C33.8474 23.8509 33.833 24.2807 33.833 24.7391V59.2079H24.716C24.716 59.2079 24.6151 59.2079 24.4999 59.2222H23.3765C21.2304 59.1936 21 61.9012 21 63.5487V64.4369C21 64.5945 21 64.7235 21.0144 64.9097C21.216 68.7778 22.6707 68.7491 23.3621 68.7491C23.7222 68.7491 24.0966 68.7491 24.5287 68.7491H33.7754V103.232C33.7754 103.232 33.7754 103.333 33.7898 103.447V104.579C33.761 106.728 36.4688 106.957 38.1107 106.957H38.9893C39.1477 106.957 39.2917 106.957 39.479 106.928C43.3534 106.728 43.3246 105.267 43.3246 104.579C43.3246 104.221 43.3246 103.834 43.3246 103.418V68.7635H50.7421V103.247C50.7421 103.247 50.7421 103.347 50.7421 103.461V104.593C50.7277 106.742 53.4354 106.971 55.0774 106.971H55.956C56.1144 106.971 56.244 106.971 56.4457 106.943C60.32 106.742 60.2912 105.281 60.2912 104.593C60.2912 104.235 60.2912 103.848 60.2912 103.433V68.7778H67.7088V103.261C67.7088 103.261 67.7088 103.361 67.7232 103.476V104.608C67.6944 106.756 70.4021 106.986 72.044 106.986H72.9226C73.0811 106.986 73.2107 106.986 73.3979 106.957C77.2867 106.756 77.2435 105.295 77.2435 104.608C77.2435 104.249 77.2435 103.863 77.2435 103.447V68.7921H84.661V103.275C84.661 103.275 84.661 103.375 84.661 103.49V104.622C84.6322 106.771 87.3544 107 88.9819 107H89.8605C90.0189 107 90.1485 107 90.3502 106.971C94.2246 106.771 94.1958 105.31 94.1958 104.622C94.1958 104.264 94.1958 103.877 94.1958 103.461V68.8064H104.609C106.755 68.8351 107 66.1131 107 64.4799V63.5917C107 61.9442 106.755 59.2365 104.609 59.2652L104.667 59.2222Z" fill="#F5333F"/>
</svg>
